<svg xmlns="http://www.w3.org/2000/svg" viewBox="0 0 64 64">
  <rect width="64" height="64" rx="12" fill="#0a0807"/>
  <path fill="#5a3d28" d="M14 28 32 13l18 15v24H14z"/>
  <path fill="#d4af37" d="M32 10 10 29l3 4 19-16 19 16 3-4z"/>
  <rect width="11" height="16" x="26.5" y="36" fill="#2a1710"/>
  <rect width="22" height="9" x="21" y="25" fill="#7d4c37"/>
  <path fill="#ffb03a" d="M32 24c5 5 6 9 3 12-2 2-5 2-7 0-3-3-1-7 4-12z"/>
  <path fill="#ffd56b" d="M33 30c2 3 2 5 0 6-1 1-3 1-4 0-1-2 0-4 4-6z"/>
</svg>
